<svg version="1.1" id="Layer_1" xmlns="http://www.w3.org/2000/svg" xmlns:xlink="http://www.w3.org/1999/xlink" x="0px" y="0px"
	 width="100%" viewBox="0 0 761 246" enable-background="new 0 0 761 246" xml:space="preserve">
<path fill="#000000" opacity="1.000000" stroke="none" 
	d="
M491.000000,247.000000 
	C327.333344,247.000000 164.166702,247.000000 1.000044,247.000000 
	C1.000029,165.000031 1.000029,83.000061 1.000015,1.000066 
	C254.666611,1.000044 508.333221,1.000044 761.999878,1.000022 
	C761.999878,82.999931 761.999878,164.999863 761.999939,246.999893 
	C671.833313,247.000000 581.666687,247.000000 491.000000,247.000000 
M698.898682,79.451759 
	C698.575745,79.398727 698.252747,79.345703 697.163513,79.194496 
	C696.135620,79.230629 695.107666,79.266769 693.177490,79.052734 
	C689.760925,79.133644 686.344360,79.214561 682.316101,79.193398 
	C681.905457,79.227249 681.494873,79.261093 680.216858,79.050491 
	C678.108093,78.742203 676.916504,79.098000 676.945923,81.785110 
	C677.114929,97.205276 677.104675,112.627411 676.925232,128.762268 
	C674.646240,136.232452 672.175476,143.194229 662.809814,144.826721 
	C656.130005,145.991043 645.069275,142.083008 644.701660,133.257019 
	C644.585205,130.460739 643.880493,127.680138 643.864563,124.889961 
	C643.778259,109.786514 643.823608,94.682312 643.823608,79.199234 
	C639.586731,79.199234 635.796021,79.201340 632.005310,79.198830 
	C621.137878,79.191650 621.130432,79.190918 621.133972,89.686333 
	C621.139282,105.504692 620.949097,121.327057 621.254395,137.139755 
	C621.409912,145.192917 625.113342,151.915726 630.561462,157.898605 
	C637.177124,165.163712 645.931030,165.681732 654.524963,165.508133 
	C661.901672,165.359100 668.955017,162.950073 673.219788,155.939285 
	C674.234863,154.270706 675.214539,152.580643 676.210571,150.900467 
	C677.163208,157.792221 677.291260,164.257294 677.063904,170.709854 
	C677.013489,172.141342 675.708801,173.528625 674.045715,174.944763 
	C662.836060,174.950378 651.626099,174.915039 640.417236,175.013626 
	C639.022461,175.025894 637.633911,175.748123 636.110840,176.729553 
	C636.133972,177.129425 636.157166,177.529297 635.991272,178.495132 
	C636.056335,178.683121 636.121338,178.871094 636.102844,179.683990 
	C636.131226,180.102402 636.159607,180.520813 635.967773,181.855972 
	C636.282227,186.583511 636.596680,191.311035 637.326355,196.818161 
	C653.257996,196.877548 669.189636,196.948868 685.121277,196.955170 
	C685.798340,196.955444 686.475586,196.353226 687.959167,196.055115 
	C690.225769,195.328720 692.492371,194.602325 694.993042,193.360046 
	C695.309143,193.170486 695.625183,192.980927 696.523376,192.948364 
	C696.607483,192.613007 696.691589,192.277634 696.876526,191.480118 
	C696.876526,191.480118 697.005920,191.025146 697.550476,190.901779 
	C697.617554,190.580933 697.684631,190.260086 697.893799,189.476791 
	C697.893799,189.476791 698.000488,189.004929 698.627869,188.702637 
	C698.740479,187.793808 698.853088,186.884995 699.000000,185.998779 
	C699.000000,185.998779 698.968750,185.970291 699.645142,185.458359 
	C699.730896,165.878677 699.874695,146.298996 699.882080,126.719292 
	C699.887146,113.454926 699.700378,100.190498 699.712219,86.314323 
	C699.671997,85.903488 699.631775,85.492653 699.859009,84.324249 
	C699.568237,82.886620 699.277405,81.448997 699.000000,80.000000 
	C699.000000,80.000000 698.986023,80.010735 698.898682,79.451759 
M172.231323,127.491989 
	C170.238785,133.145508 165.865707,136.229385 160.312057,137.042450 
	C157.127670,137.508636 156.377457,139.066650 156.283859,141.497940 
	C156.136566,145.324478 156.576080,149.191055 156.212173,152.987473 
	C155.751877,157.789368 158.364090,158.276535 161.985001,157.802521 
	C175.410202,156.044937 184.572052,148.969772 191.016876,136.901611 
	C202.087967,116.170586 188.173355,86.818352 163.176498,84.262810 
	C153.977646,83.322365 144.660034,83.401039 135.393478,83.299088 
	C121.951324,83.151199 108.506332,83.261185 94.823532,83.261185 
	C94.823532,79.053329 94.508827,75.399429 94.889137,71.819359 
	C95.677635,64.396629 102.448547,58.134197 109.682915,57.881393 
	C117.128372,57.621212 125.289833,61.895485 126.254944,69.901337 
	C126.813461,74.534462 129.096924,76.664207 134.057510,75.923653 
	C137.155258,75.461197 140.386230,75.972618 143.541138,75.780098 
	C145.347046,75.669891 147.120316,75.025124 149.536118,74.479141 
	C147.616348,68.476967 146.231247,63.093975 144.192780,57.970970 
	C138.128403,42.730320 121.765007,35.223984 108.794998,36.565655 
	C86.649315,38.856495 73.673271,53.740452 73.259537,76.172974 
	C72.927689,94.166412 73.154404,112.170166 73.134033,130.169342 
	C73.131447,132.453598 73.133682,134.737839 73.133682,137.334061 
	C69.845337,137.334061 67.031670,137.083328 64.277412,137.381454 
	C56.278336,138.247299 47.507668,130.252335 46.906235,121.399231 
	C46.392521,113.837395 53.612324,105.886032 61.797852,104.911476 
	C64.705482,104.565300 66.170982,103.588379 65.948242,100.281212 
	C65.646561,95.802101 65.772949,91.282967 65.929359,86.788445 
	C66.021431,84.142906 64.922447,83.045082 62.413452,83.331009 
	C46.173962,85.181610 34.613625,92.403893 28.954992,108.004799 
	C24.579887,120.067017 25.514408,132.480423 33.864697,143.006622 
	C39.521988,150.138077 46.272911,156.410080 56.160149,156.897644 
	C66.939354,157.429169 77.736794,157.629425 88.528839,157.847549 
	C94.812538,157.974579 94.755966,157.863022 94.741058,151.478333 
	C94.705025,136.045029 94.729362,120.611580 94.729362,105.127350 
	C105.828659,105.127350 116.384331,105.127350 127.169785,105.127350 
	C127.169785,126.441307 127.265869,147.420410 127.124001,168.397888 
	C127.064629,177.177231 118.124168,184.759476 111.058228,184.222809 
	C103.067329,183.615860 96.866791,179.013626 94.956749,170.338913 
	C94.253525,167.145126 93.078186,165.887543 89.777870,166.082077 
	C85.459763,166.336578 81.111755,166.250092 76.783363,166.106537 
	C73.818100,166.008194 72.948204,167.417679 73.224136,170.079239 
	C74.814362,185.418137 84.316811,199.390671 100.371124,203.432251 
	C126.948891,210.123001 147.326843,192.862350 148.531204,168.178070 
	C149.487946,148.569153 148.777176,128.878891 148.806274,109.224754 
	C148.808365,107.811981 148.806534,106.399208 148.806534,104.875648 
	C152.932755,104.875648 156.418945,104.855904 159.904831,104.879333 
	C170.428741,104.950073 177.709061,118.138435 172.231323,127.491989 
M269.016479,144.502014 
	C269.016479,150.917786 269.016479,157.333557 269.016479,163.789688 
	C275.948029,163.789688 282.111115,163.622131 288.259003,163.854919 
	C291.734680,163.986526 292.917725,162.875519 292.863007,159.324997 
	C292.678192,147.332611 292.665802,135.333450 292.863770,123.341446 
	C292.936523,118.934738 291.852448,115.176041 288.544678,112.359406 
	C285.816803,110.036568 282.741394,108.121910 279.585968,105.858513 
	C287.729523,102.179367 293.418243,96.651894 294.535767,87.979683 
	C295.260559,82.355309 295.142670,76.513237 294.554169,70.856972 
	C293.853424,64.122513 289.904053,58.698242 285.215149,54.077713 
	C278.522522,47.482697 269.661591,45.750389 260.854431,45.427410 
	C246.046677,44.884369 231.204407,45.337219 216.378281,45.198296 
	C213.030975,45.166927 212.126373,46.411057 212.171097,49.612148 
	C212.327026,60.771996 212.217072,71.935463 212.219528,83.097557 
	C212.225098,108.420387 212.219772,133.743256 212.282623,159.065948 
	C212.287338,160.965790 211.147079,163.786621 214.838272,163.793701 
	C221.765289,163.807007 228.692322,163.797531 235.924240,163.797531 
	C235.924240,148.577652 235.924240,133.978256 235.924240,118.953285 
	C244.357925,118.953285 252.496246,118.616737 260.585785,119.098640 
	C264.491730,119.331329 268.206970,120.937767 268.191711,126.311867 
	C268.175446,132.041779 268.718201,137.773254 269.016479,144.502014 
M412.090637,117.544998 
	C412.067566,122.043877 411.717834,126.569847 412.088165,131.036118 
	C412.907806,140.921417 417.389099,149.139023 424.060760,156.398117 
	C430.916199,163.857193 440.042877,165.442108 449.181549,165.544250 
	C457.532013,165.637589 466.029541,164.153687 471.677032,156.553314 
	C473.121887,154.608826 474.597443,152.687149 476.785950,149.793701 
	C476.937592,152.228287 477.063965,153.323654 477.065155,154.419144 
	C477.079132,167.085114 477.168976,179.752274 477.012726,192.416321 
	C476.969604,195.911942 478.120117,197.213074 481.634857,196.983627 
	C485.451691,196.734467 489.327820,196.625198 493.122803,197.005890 
	C497.783844,197.473434 499.077728,195.823318 499.050812,191.162064 
	C498.858093,157.831635 498.947815,124.499565 498.947754,91.168015 
	C498.947754,87.262459 498.947723,83.356903 498.947723,79.425545 
	C491.379791,79.425545 484.448151,79.425545 476.857483,79.425545 
	C476.857483,83.473846 476.857483,87.303406 476.857483,91.932808 
	C472.912109,87.803101 470.222168,83.619514 466.405823,81.250633 
	C455.180511,74.282852 443.010803,75.191521 431.993225,81.072166 
	C418.262360,88.401039 411.944366,100.925583 412.090637,117.544998 
M387.498413,143.073013 
	C382.683228,140.317474 377.868011,137.561920 372.709564,134.609940 
	C366.253876,143.866196 357.600098,146.482193 347.415710,142.895157 
	C341.232788,140.717499 337.124268,136.177567 335.513031,128.904266 
	C337.614868,128.904266 339.221649,128.875183 340.827087,128.908783 
	C356.248077,129.231415 371.667603,129.680496 387.090210,129.852066 
	C396.588989,129.957718 397.012451,129.371750 396.550446,120.393517 
	C396.406097,117.588112 396.272552,114.759392 395.803131,111.997589 
	C394.144928,102.241417 390.586975,93.229004 382.883911,86.736626 
	C373.367462,78.715912 362.209808,75.874130 349.693451,77.113571 
	C332.106384,78.855148 316.859619,90.743042 313.520477,108.815186 
	C310.681030,124.182938 311.812866,139.021454 322.198456,151.747391 
	C327.241150,157.926437 333.769897,162.057434 341.648193,163.844543 
	C348.526215,165.404739 355.405304,166.005890 362.469482,164.894760 
	C369.310974,163.818649 376.185791,163.122849 381.374786,157.791534 
	C385.064026,154.001022 388.729706,150.187561 392.476044,146.311829 
	C390.582672,144.932297 389.399872,144.070480 387.498413,143.073013 
M570.654663,73.501671 
	C570.223328,64.094986 571.631165,54.576290 569.631226,45.243633 
	C557.615234,45.243633 546.292847,45.243332 534.970398,45.243706 
	C518.014282,45.244263 518.103821,45.238052 519.345398,62.578243 
	C519.580872,65.868019 520.779297,66.814293 523.893005,66.753761 
	C531.828003,66.599495 539.768005,66.702415 547.913391,66.702415 
	C547.913391,91.675278 547.913391,116.255920 547.913391,141.815643 
	C537.983582,141.815643 528.193115,141.815643 518.249084,141.815643 
	C518.249084,148.607895 518.293030,154.422714 518.228333,160.236328 
	C518.200989,162.694321 519.037354,163.839020 521.710938,163.831909 
	C545.857300,163.767776 570.003967,163.787201 594.150513,163.814011 
	C596.515198,163.816635 597.847595,163.193176 597.751770,160.421417 
	C597.585022,155.600052 597.666443,150.766663 597.766968,145.940872 
	C597.821350,143.332718 597.097412,141.921524 594.113708,141.987534 
	C587.641907,142.130707 581.161255,142.131500 574.691101,141.947220 
	C572.411133,141.882263 570.569519,141.203049 570.593628,137.916321 
	C570.748779,116.779320 570.661804,95.640526 570.654663,73.501671 
z"/>
<path fill="#ffff" opacity="1.000000" stroke="none" 
	d="
M172.540100,127.221878 
	C177.709061,118.138435 170.428741,104.950073 159.904831,104.879333 
	C156.418945,104.855904 152.932755,104.875648 148.806534,104.875648 
	C148.806534,106.399208 148.808365,107.811981 148.806274,109.224754 
	C148.777176,128.878891 149.487946,148.569153 148.531204,168.178070 
	C147.326843,192.862350 126.948891,210.123001 100.371124,203.432251 
	C84.316811,199.390671 74.814362,185.418137 73.224136,170.079239 
	C72.948204,167.417679 73.818100,166.008194 76.783363,166.106537 
	C81.111755,166.250092 85.459763,166.336578 89.777870,166.082077 
	C93.078186,165.887543 94.253525,167.145126 94.956749,170.338913 
	C96.866791,179.013626 103.067329,183.615860 111.058228,184.222809 
	C118.124168,184.759476 127.064629,177.177231 127.124001,168.397888 
	C127.265869,147.420410 127.169785,126.441307 127.169785,105.127350 
	C116.384331,105.127350 105.828659,105.127350 94.729362,105.127350 
	C94.729362,120.611580 94.705025,136.045029 94.741058,151.478333 
	C94.755966,157.863022 94.812538,157.974579 88.528839,157.847549 
	C77.736794,157.629425 66.939354,157.429169 56.160149,156.897644 
	C46.272911,156.410080 39.521988,150.138077 33.864697,143.006622 
	C25.514408,132.480423 24.579887,120.067017 28.954992,108.004799 
	C34.613625,92.403893 46.173962,85.181610 62.413452,83.331009 
	C64.922447,83.045082 66.021431,84.142906 65.929359,86.788445 
	C65.772949,91.282967 65.646561,95.802101 65.948242,100.281212 
	C66.170982,103.588379 64.705482,104.565300 61.797852,104.911476 
	C53.612324,105.886032 46.392521,113.837395 46.906235,121.399231 
	C47.507668,130.252335 56.278336,138.247299 64.277412,137.381454 
	C67.031670,137.083328 69.845337,137.334061 73.133682,137.334061 
	C73.133682,134.737839 73.131447,132.453598 73.134033,130.169342 
	C73.154404,112.170166 72.927689,94.166412 73.259537,76.172974 
	C73.673271,53.740452 86.649315,38.856495 108.794998,36.565655 
	C121.765007,35.223984 138.128403,42.730320 144.192780,57.970970 
	C146.231247,63.093975 147.616348,68.476967 149.536118,74.479141 
	C147.120316,75.025124 145.347046,75.669891 143.541138,75.780098 
	C140.386230,75.972618 137.155258,75.461197 134.057510,75.923653 
	C129.096924,76.664207 126.813461,74.534462 126.254944,69.901337 
	C125.289833,61.895485 117.128372,57.621212 109.682915,57.881393 
	C102.448547,58.134197 95.677635,64.396629 94.889137,71.819359 
	C94.508827,75.399429 94.823532,79.053329 94.823532,83.261185 
	C108.506332,83.261185 121.951324,83.151199 135.393478,83.299088 
	C144.660034,83.401039 153.977646,83.322365 163.176498,84.262810 
	C188.173355,86.818352 202.087967,116.170586 191.016876,136.901611 
	C184.572052,148.969772 175.410202,156.044937 161.985001,157.802521 
	C158.364090,158.276535 155.751877,157.789368 156.212173,152.987473 
	C156.576080,149.191055 156.136566,145.324478 156.283859,141.497940 
	C156.377457,139.066650 157.127670,137.508636 160.312057,137.042450 
	C165.865707,136.229385 170.238785,133.145508 172.540100,127.221878 
z"/>
<path fill="#F1F0F4" opacity="1.000000" stroke="none" 
	d="
M269.016663,144.003021 
	C268.718201,137.773254 268.175446,132.041779 268.191711,126.311867 
	C268.206970,120.937767 264.491730,119.331329 260.585785,119.098640 
	C252.496246,118.616737 244.357925,118.953285 235.924240,118.953285 
	C235.924240,133.978256 235.924240,148.577652 235.924240,163.797531 
	C228.692322,163.797531 221.765289,163.807007 214.838272,163.793701 
	C211.147079,163.786621 212.287338,160.965790 212.282623,159.065948 
	C212.219772,133.743256 212.225098,108.420387 212.219528,83.097557 
	C212.217072,71.935463 212.327026,60.771996 212.171097,49.612148 
	C212.126373,46.411057 213.030975,45.166927 216.378281,45.198296 
	C231.204407,45.337219 246.046677,44.884369 260.854431,45.427410 
	C269.661591,45.750389 278.522522,47.482697 285.215149,54.077713 
	C289.904053,58.698242 293.853424,64.122513 294.554169,70.856972 
	C295.142670,76.513237 295.260559,82.355309 294.535767,87.979683 
	C293.418243,96.651894 287.729523,102.179367 279.585968,105.858513 
	C282.741394,108.121910 285.816803,110.036568 288.544678,112.359406 
	C291.852448,115.176041 292.936523,118.934738 292.863770,123.341446 
	C292.665802,135.333450 292.678192,147.332611 292.863007,159.324997 
	C292.917725,162.875519 291.734680,163.986526 288.259003,163.854919 
	C282.111115,163.622131 275.948029,163.789688 269.016479,163.789688 
	C269.016479,157.333557 269.016479,150.917786 269.016663,144.003021 
M256.246094,67.699120 
	C249.519348,67.699120 242.792603,67.699120 236.234894,67.699120 
	C236.234894,77.906815 236.234894,87.442162 236.234894,97.080513 
	C243.414124,97.080513 250.238724,97.349434 257.031433,96.999550 
	C262.984863,96.692902 268.511230,94.513969 270.865448,88.581741 
	C274.837921,78.571793 268.119019,68.669289 256.246094,67.699120 
z"/>
<path fill="#F2F1F5" opacity="1.000000" stroke="none" 
	d="
M412.093170,117.055161 
	C411.944366,100.925583 418.262360,88.401039 431.993225,81.072166 
	C443.010803,75.191521 455.180511,74.282852 466.405823,81.250633 
	C470.222168,83.619514 472.912109,87.803101 476.857483,91.932808 
	C476.857483,87.303406 476.857483,83.473846 476.857483,79.425545 
	C484.448151,79.425545 491.379791,79.425545 498.947723,79.425545 
	C498.947723,83.356903 498.947754,87.262459 498.947754,91.168015 
	C498.947815,124.499565 498.858093,157.831635 499.050812,191.162064 
	C499.077728,195.823318 497.783844,197.473434 493.122803,197.005890 
	C489.327820,196.625198 485.451691,196.734467 481.634857,196.983627 
	C478.120117,197.213074 476.969604,195.911942 477.012726,192.416321 
	C477.168976,179.752274 477.079132,167.085114 477.065155,154.419144 
	C477.063965,153.323654 476.937592,152.228287 476.785950,149.793701 
	C474.597443,152.687149 473.121887,154.608826 471.677032,156.553314 
	C466.029541,164.153687 457.532013,165.637589 449.181549,165.544250 
	C440.042877,165.442108 430.916199,163.857193 424.060760,156.398117 
	C417.389099,149.139023 412.907806,140.921417 412.088165,131.036118 
	C411.717834,126.569847 412.067566,122.043877 412.093170,117.055161 
M434.737976,124.294922 
	C434.723816,139.464691 450.896759,147.877213 462.996582,142.862503 
	C474.248169,138.199356 479.134125,125.926537 475.598541,113.619743 
	C471.703796,100.062759 457.672394,95.579163 445.788940,100.529961 
	C442.888916,101.738167 439.293060,103.910255 438.300476,106.510712 
	C436.276184,111.814087 435.805023,117.710289 434.737976,124.294922 
z"/>
<path fill="#F4F3F7" opacity="1.000000" stroke="none" 
	d="
M674.981567,174.936279 
	C675.708801,173.528625 677.013489,172.141342 677.063904,170.709854 
	C677.291260,164.257294 677.163208,157.792221 676.210571,150.900467 
	C675.214539,152.580643 674.234863,154.270706 673.219788,155.939285 
	C668.955017,162.950073 661.901672,165.359100 654.524963,165.508133 
	C645.931030,165.681732 637.177124,165.163712 630.561462,157.898605 
	C625.113342,151.915726 621.409912,145.192917 621.254395,137.139755 
	C620.949097,121.327057 621.139282,105.504692 621.133972,89.686333 
	C621.130432,79.190918 621.137878,79.191650 632.005310,79.198830 
	C635.796021,79.201340 639.586731,79.199234 643.823608,79.199234 
	C643.823608,94.682312 643.778259,109.786514 643.864563,124.889961 
	C643.880493,127.680138 644.585205,130.460739 644.701660,133.257019 
	C645.069275,142.083008 656.130005,145.991043 662.809814,144.826721 
	C672.175476,143.194229 674.646240,136.232452 677.275635,128.062057 
	C677.759277,113.085083 677.967407,98.808266 677.957825,84.531593 
	C677.956116,81.911316 678.454041,80.099762 681.084229,79.294952 
	C681.494873,79.261093 681.905457,79.227249 682.943970,79.494370 
	C687.074524,79.631203 690.577148,79.467056 694.079773,79.302902 
	C695.107666,79.266769 696.135620,79.230629 697.643005,79.457764 
	C698.362549,79.960022 698.650391,80.056595 698.986023,80.010735 
	C698.986023,80.010735 699.000000,80.000000 698.934021,80.381424 
	C699.109192,82.202499 699.350403,83.642159 699.591553,85.081818 
	C699.631775,85.492653 699.671997,85.903488 699.393494,86.951965 
	C699.039429,120.383171 699.004089,153.176727 698.968750,185.970291 
	C698.968750,185.970291 699.000000,185.998779 698.711914,186.192169 
	C698.282715,187.258698 698.141602,188.131821 698.000488,189.004929 
	C698.000488,189.004929 697.893799,189.476791 697.596558,189.803604 
	C697.022522,190.369919 696.924683,190.668152 697.005920,191.025146 
	C697.005920,191.025146 696.876526,191.480118 696.626160,191.781357 
	C696.129822,192.256866 695.984985,192.493118 695.941284,192.791367 
	C695.625183,192.980927 695.309143,193.170486 694.461731,193.613617 
	C691.995178,194.279266 690.062317,195.035690 688.124329,195.049133 
	C672.229370,195.159378 656.333130,195.084717 640.438049,195.186630 
	C637.446655,195.205795 636.889282,193.772354 636.862915,191.203430 
	C636.827698,187.780075 636.429993,184.360458 636.187988,180.939224 
	C636.159607,180.520813 636.131226,180.102402 636.290527,179.261230 
	C636.378967,178.535370 636.279602,178.232285 636.180298,177.929169 
	C636.157166,177.529297 636.133972,177.129425 636.630127,176.410156 
	C648.042969,176.035431 658.937012,176.021866 669.829407,175.881729 
	C671.550598,175.859589 673.264343,175.265793 674.981567,174.936279 
z"/>
<path fill="#F1EFF4" opacity="1.000000" stroke="none" 
	d="
M387.857727,143.140839 
	C389.399872,144.070480 390.582672,144.932297 392.476044,146.311829 
	C388.729706,150.187561 385.064026,154.001022 381.374786,157.791534 
	C376.185791,163.122849 369.310974,163.818649 362.469482,164.894760 
	C355.405304,166.005890 348.526215,165.404739 341.648193,163.844543 
	C333.769897,162.057434 327.241150,157.926437 322.198456,151.747391 
	C311.812866,139.021454 310.681030,124.182938 313.520477,108.815186 
	C316.859619,90.743042 332.106384,78.855148 349.693451,77.113571 
	C362.209808,75.874130 373.367462,78.715912 382.883911,86.736626 
	C390.586975,93.229004 394.144928,102.241417 395.803131,111.997589 
	C396.272552,114.759392 396.406097,117.588112 396.550446,120.393517 
	C397.012451,129.371750 396.588989,129.957718 387.090210,129.852066 
	C371.667603,129.680496 356.248077,129.231415 340.827087,128.908783 
	C339.221649,128.875183 337.614868,128.904266 335.513031,128.904266 
	C337.124268,136.177567 341.232788,140.717499 347.415710,142.895157 
	C357.600098,146.482193 366.253876,143.866196 372.709564,134.609940 
	C377.868011,137.561920 382.683228,140.317474 387.857727,143.140839 
M349.395660,98.483055 
	C342.029633,100.004982 337.982239,103.529854 337.260651,109.020042 
	C349.132660,109.020042 361.006287,109.020042 373.038452,109.020042 
	C369.012390,100.255829 362.279816,96.639893 349.395660,98.483055 
z"/>
<path fill="#F0EDF4" opacity="1.000000" stroke="none" 
	d="
M570.654541,74.001999 
	C570.661804,95.640526 570.748779,116.779320 570.593628,137.916321 
	C570.569519,141.203049 572.411133,141.882263 574.691101,141.947220 
	C581.161255,142.131500 587.641907,142.130707 594.113708,141.987534 
	C597.097412,141.921524 597.821350,143.332718 597.766968,145.940872 
	C597.666443,150.766663 597.585022,155.600052 597.751770,160.421417 
	C597.847595,163.193176 596.515198,163.816635 594.150513,163.814011 
	C570.003967,163.787201 545.857300,163.767776 521.710938,163.831909 
	C519.037354,163.839020 518.200989,162.694321 518.228333,160.236328 
	C518.293030,154.422714 518.249084,148.607895 518.249084,141.815643 
	C528.193115,141.815643 537.983582,141.815643 547.913391,141.815643 
	C547.913391,116.255920 547.913391,91.675278 547.913391,66.702415 
	C539.768005,66.702415 531.828003,66.599495 523.893005,66.753761 
	C520.779297,66.814293 519.580872,65.868019 519.345398,62.578243 
	C518.103821,45.238052 518.014282,45.244263 534.970398,45.243706 
	C546.292847,45.243332 557.615234,45.243633 569.631226,45.243633 
	C571.631165,54.576290 570.223328,64.094986 570.654541,74.001999 
z"/>
<path fill="#B1A7CB" opacity="1.000000" stroke="none" 
	d="
M699.307007,185.714325 
	C699.004089,153.176727 699.039429,120.383171 699.337036,87.257851 
	C699.700378,100.190498 699.887146,113.454926 699.882080,126.719292 
	C699.874695,146.298996 699.730896,165.878677 699.307007,185.714325 
z"/>
<path fill="#B1A7CB" opacity="1.000000" stroke="none" 
	d="
M636.077881,181.397598 
	C636.429993,184.360458 636.827698,187.780075 636.862915,191.203430 
	C636.889282,193.772354 637.446655,195.205795 640.438049,195.186630 
	C656.333130,195.084717 672.229370,195.159378 688.124329,195.049133 
	C690.062317,195.035690 691.995178,194.279266 694.344727,193.871552 
	C692.492371,194.602325 690.225769,195.328720 687.080872,195.982025 
	C669.772095,195.952148 653.341675,195.995361 636.911194,196.038574 
	C636.596680,191.311035 636.282227,186.583511 636.077881,181.397598 
z"/>
<path fill="#B1A7CB" opacity="1.000000" stroke="none" 
	d="
M680.650513,79.172722 
	C678.454041,80.099762 677.956116,81.911316 677.957825,84.531593 
	C677.967407,98.808266 677.759277,113.085083 677.390625,127.705368 
	C677.104675,112.627411 677.114929,97.205276 676.945923,81.785110 
	C676.916504,79.098000 678.108093,78.742203 680.650513,79.172722 
z"/>
<path fill="#FFFFFF" opacity="1.000000" stroke="none" 
	d="
M637.118774,196.428375 
	C653.341675,195.995361 669.772095,195.952148 686.677673,195.970306 
	C686.475586,196.353226 685.798340,196.955444 685.121277,196.955170 
	C669.189636,196.948868 653.257996,196.877548 637.118774,196.428375 
z"/>
<path fill="#B1A7CB" opacity="1.000000" stroke="none" 
	d="
M674.513672,174.940521 
	C673.264343,175.265793 671.550598,175.859589 669.829407,175.881729 
	C658.937012,176.021866 648.042969,176.035431 636.695923,176.116058 
	C637.633911,175.748123 639.022461,175.025894 640.417236,175.013626 
	C651.626099,174.915039 662.836060,174.950378 674.513672,174.940521 
z"/>
<path fill="#B1A7CB" opacity="1.000000" stroke="none" 
	d="
M693.628662,79.177826 
	C690.577148,79.467056 687.074524,79.631203 683.249878,79.545410 
	C686.344360,79.214561 689.760925,79.133644 693.628662,79.177826 
z"/>
<path fill="#B1A7CB" opacity="1.000000" stroke="none" 
	d="
M699.725281,84.703033 
	C699.350403,83.642159 699.109192,82.202499 698.927307,80.387108 
	C699.277405,81.448997 699.568237,82.886620 699.725281,84.703033 
z"/>
<path fill="#B1A7CB" opacity="1.000000" stroke="none" 
	d="
M698.314209,188.853790 
	C698.141602,188.131821 698.282715,187.258698 698.694763,186.180878 
	C698.853088,186.884995 698.740479,187.793808 698.314209,188.853790 
z"/>
<path fill="#B1A7CB" opacity="1.000000" stroke="none" 
	d="
M698.942383,79.731247 
	C698.650391,80.056595 698.362549,79.960022 698.026123,79.506851 
	C698.252747,79.345703 698.575745,79.398727 698.942383,79.731247 
z"/>
<path fill="#B1A7CB" opacity="1.000000" stroke="none" 
	d="
M636.085754,178.212158 
	C636.279602,178.232285 636.378967,178.535370 636.332275,178.948761 
	C636.121338,178.871094 636.056335,178.683121 636.085754,178.212158 
z"/>
<path fill="#B1A7CB" opacity="1.000000" stroke="none" 
	d="
M697.278198,190.963470 
	C696.924683,190.668152 697.022522,190.369919 697.525513,190.034821 
	C697.684631,190.260086 697.617554,190.580933 697.278198,190.963470 
z"/>
<path fill="#B1A7CB" opacity="1.000000" stroke="none" 
	d="
M696.232300,192.869873 
	C695.984985,192.493118 696.129822,192.256866 696.575684,192.012421 
	C696.691589,192.277634 696.607483,192.613007 696.232300,192.869873 
z"/>
<path fill="#000000" opacity="1.000000" stroke="none" 
	d="
M256.711060,67.710220 
	C268.119019,68.669289 274.837921,78.571793 270.865448,88.581741 
	C268.511230,94.513969 262.984863,96.692902 257.031433,96.999550 
	C250.238724,97.349434 243.414124,97.080513 236.234894,97.080513 
	C236.234894,87.442162 236.234894,77.906815 236.234894,67.699120 
	C242.792603,67.699120 249.519348,67.699120 256.711060,67.710220 
z"/>
<path fill="#000000" opacity="1.000000" stroke="none" 
	d="
M434.716003,123.828598 
	C435.805023,117.710289 436.276184,111.814087 438.300476,106.510712 
	C439.293060,103.910255 442.888916,101.738167 445.788940,100.529961 
	C457.672394,95.579163 471.703796,100.062759 475.598541,113.619743 
	C479.134125,125.926537 474.248169,138.199356 462.996582,142.862503 
	C450.896759,147.877213 434.723816,139.464691 434.716003,123.828598 
z"/>
<path fill="#000000" opacity="1.000000" stroke="none" 
	d="
M349.771790,98.268143 
	C362.279816,96.639893 369.012390,100.255829 373.038452,109.020042 
	C361.006287,109.020042 349.132660,109.020042 337.260651,109.020042 
	C337.982239,103.529854 342.029633,100.004982 349.771790,98.268143 
z"/>
</svg>